<?xml version="1.0" encoding="UTF-8" standalone="no"?><!DOCTYPE svg PUBLIC "-//W3C//DTD SVG 1.1//EN" "http://www.w3.org/Graphics/SVG/1.1/DTD/svg11.dtd"><!-- Generated by graphviz version 2.40.1 (20161225.0304)
 --><!-- Title: G Pages: 1 --><svg xmlns="http://www.w3.org/2000/svg" xmlns:xlink="http://www.w3.org/1999/xlink" width="145pt" height="300pt" viewBox="0.00 0.00 145.00 299.60">
<g id="graph0" class="graph" transform="scale(1 1) rotate(0) translate(4 295.6)">
<title>G</title>
<polygon fill="#ffffff" stroke="transparent" points="-4,4 -4,-295.6 141,-295.6 141,4 -4,4"/>
<!-- s1 -->
<g id="node1" class="node">
<title>s1</title>
<ellipse fill="none" stroke="#000000" cx="40" cy="-162" rx="27" ry="18"/>
<text text-anchor="middle" x="40" y="-157.8" font-family="Times,serif" font-size="14.00" fill="#000000">a</text>
</g>
<!-- c2 -->
<g id="node2" class="node">
<title>c2</title>
<ellipse fill="none" stroke="#ff0000" cx="27" cy="-18" rx="27" ry="18"/>
<text text-anchor="middle" x="27" y="-13.8" font-family="Times,serif" font-size="14.00" fill="#000000">K</text>
</g>
<!-- s3 -->
<g id="node3" class="node">
<title>s3</title>
<ellipse fill="none" stroke="#ff0000" cx="99" cy="-18" rx="27" ry="18"/>
<text text-anchor="middle" x="99" y="-13.8" font-family="Times,serif" font-size="14.00" fill="#000000">x</text>
</g>
<!-- n4 -->
<g id="node4" class="node">
<title>n4</title>
<ellipse fill="#ff0000" stroke="#ff0000" cx="63" cy="-90" rx="1.8" ry="1.8"/>
</g>
<!-- n4&#45;&#45;c2 -->
<g id="edge1" class="edge">
<title>n4--c2</title>
<path fill="none" stroke="#ff0000" d="M62.1101,-88.2202C58.5154,-81.0307 44.8198,-53.6395 35.6343,-35.2687"/>
</g>
<!-- n4&#45;&#45;s3 -->
<g id="edge2" class="edge">
<title>n4--s3</title>
<path fill="none" stroke="#ff0000" d="M63.8899,-88.2202C67.4846,-81.0307 81.1802,-53.6395 90.3657,-35.2687"/>
</g>
<!-- s5 -->
<g id="node5" class="node">
<title>s5</title>
<ellipse fill="none" stroke="#ff0000" cx="110" cy="-90" rx="27" ry="18"/>
<text text-anchor="middle" x="110" y="-85.8" font-family="Times,serif" font-size="14.00" fill="#000000">y</text>
</g>
<!-- n6 -->
<g id="node6" class="node">
<title>n6</title>
<ellipse fill="#ff0000" stroke="#ff0000" cx="87" cy="-162" rx="1.8" ry="1.8"/>
</g>
<!-- n6&#45;&#45;n4 -->
<g id="edge3" class="edge">
<title>n6--n4</title>
<path fill="none" stroke="#ff0000" d="M86.4067,-160.2202C83.0863,-150.2589 66.8386,-101.5158 63.5725,-91.7176"/>
</g>
<!-- n6&#45;&#45;s5 -->
<g id="edge4" class="edge">
<title>n6--s5</title>
<path fill="none" stroke="#ff0000" d="M87.5685,-160.2202C89.8375,-153.1173 98.4052,-126.2966 104.2703,-107.9366"/>
</g>
<!-- n7 -->
<g id="node7" class="node">
<title>n7</title>
<ellipse fill="#000000" stroke="#000000" cx="63" cy="-234" rx="1.8" ry="1.8"/>
</g>
<!-- n7&#45;&#45;s1 -->
<g id="edge5" class="edge">
<title>n7--s1</title>
<path fill="none" stroke="#000000" d="M62.4315,-232.2202C60.1625,-225.1173 51.5948,-198.2966 45.7297,-179.9366"/>
</g>
<!-- n7&#45;&#45;n6 -->
<g id="edge6" class="edge">
<title>n7--n6</title>
<path fill="none" stroke="#000000" d="M63.5933,-232.2202C66.9137,-222.2589 83.1614,-173.5158 86.4275,-163.7176"/>
</g>
<!-- s8 -->
<g id="node8" class="node">
<title>s8</title>
<ellipse fill="none" stroke="#000000" cx="110" cy="-234" rx="27" ry="18"/>
<text text-anchor="middle" x="110" y="-229.8" font-family="Times,serif" font-size="14.00" fill="#000000">b</text>
</g>
<!-- n9 -->
<g id="node9" class="node">
<title>n9</title>
<ellipse fill="#000000" stroke="#000000" cx="86" cy="-289.8" rx="1.8" ry="1.8"/>
</g>
<!-- n9&#45;&#45;n7 -->
<g id="edge7" class="edge">
<title>n9--n7</title>
<path fill="none" stroke="#000000" d="M85.2347,-287.9434C81.7428,-279.4715 67.3383,-244.525 63.7917,-235.9208"/>
</g>
<!-- n9&#45;&#45;s8 -->
<g id="edge8" class="edge">
<title>n9--s8</title>
<path fill="none" stroke="#000000" d="M86.7985,-287.9434C89.2223,-282.3081 96.6844,-264.9588 102.4988,-251.4403"/>
</g>
</g>
</svg>