<?xml version="1.0" encoding="UTF-8" standalone="no"?><!DOCTYPE svg PUBLIC "-//W3C//DTD SVG 1.1//EN" "http://www.w3.org/Graphics/SVG/1.1/DTD/svg11.dtd"><!-- Generated by graphviz version 2.40.1 (20161225.0304)
 --><!-- Title: G Pages: 1 --><svg xmlns="http://www.w3.org/2000/svg" xmlns:xlink="http://www.w3.org/1999/xlink" width="145pt" height="156pt" viewBox="0.00 0.00 145.00 155.60">
<g id="graph0" class="graph" transform="scale(1 1) rotate(0) translate(4 151.6)">
<title>G</title>
<polygon fill="#ffffff" stroke="transparent" points="-4,4 -4,-151.6 141,-151.6 141,4 -4,4"/>
<!-- S -->
<g id="node1" class="node">
<title>S</title>
<ellipse fill="none" stroke="#000000" cx="27" cy="-90" rx="27" ry="18"/>
<text text-anchor="middle" x="27" y="-85.8" font-family="Times,serif" font-size="14.00" fill="#000000">S</text>
</g>
<!-- n1 -->
<g id="node2" class="node">
<title>n1</title>
<ellipse fill="#000000" stroke="#000000" cx="50" cy="-145.8" rx="1.8" ry="1.8"/>
</g>
<!-- n1&#45;&#45;S -->
<g id="edge1" class="edge">
<title>n1--S</title>
<path fill="none" stroke="#000000" d="M49.2347,-143.9434C46.9119,-138.3081 39.7608,-120.9588 34.1886,-107.4403"/>
</g>
<!-- n2 -->
<g id="node4" class="node">
<title>n2</title>
<ellipse fill="#000000" stroke="#000000" cx="74" cy="-90" rx="1.8" ry="1.8"/>
</g>
<!-- n1&#45;&#45;n2 -->
<g id="edge2" class="edge">
<title>n1--n2</title>
<path fill="none" stroke="#000000" d="M50.7985,-143.9434C54.4423,-135.4715 69.4731,-100.525 73.1739,-91.9208"/>
</g>
<!-- K -->
<g id="node3" class="node">
<title>K</title>
<ellipse fill="none" stroke="#000000" cx="38" cy="-18" rx="27" ry="18"/>
<text text-anchor="middle" x="38" y="-13.8" font-family="Times,serif" font-size="14.00" fill="#000000">K</text>
</g>
<!-- n2&#45;&#45;K -->
<g id="edge3" class="edge">
<title>n2--K</title>
<path fill="none" stroke="#000000" d="M73.1101,-88.2202C69.5154,-81.0307 55.8198,-53.6395 46.6343,-35.2687"/>
</g>
<!-- I -->
<g id="node5" class="node">
<title>I</title>
<ellipse fill="none" stroke="#000000" cx="110" cy="-18" rx="27" ry="18"/>
<text text-anchor="middle" x="110" y="-13.8" font-family="Times,serif" font-size="14.00" fill="#000000">I</text>
</g>
<!-- n2&#45;&#45;I -->
<g id="edge4" class="edge">
<title>n2--I</title>
<path fill="none" stroke="#000000" d="M74.8899,-88.2202C78.4846,-81.0307 92.1802,-53.6395 101.3657,-35.2687"/>
</g>
</g>
</svg>