<?xml version="1.0" encoding="UTF-8" standalone="no"?><!DOCTYPE svg PUBLIC "-//W3C//DTD SVG 1.1//EN" "http://www.w3.org/Graphics/SVG/1.1/DTD/svg11.dtd"><!-- Generated by graphviz version 2.40.1 (20161225.0304)
 --><!-- Title: G Pages: 1 --><svg xmlns="http://www.w3.org/2000/svg" xmlns:xlink="http://www.w3.org/1999/xlink" width="168pt" height="228pt" viewBox="0.00 0.00 168.00 227.60">
<g id="graph0" class="graph" transform="scale(1 1) rotate(0) translate(4 223.6)">
<title>G</title>
<polygon fill="#ffffff" stroke="transparent" points="-4,4 -4,-223.6 164,-223.6 164,4 -4,4"/>
<!-- S -->
<g id="node1" class="node">
<title>S</title>
<ellipse fill="none" stroke="#000000" cx="27" cy="-18" rx="27" ry="18"/>
<text text-anchor="middle" x="27" y="-13.8" font-family="Times,serif" font-size="14.00" fill="#000000">S</text>
</g>
<!-- n1 -->
<g id="node2" class="node">
<title>n1</title>
<ellipse fill="#000000" stroke="#000000" cx="63" cy="-90" rx="1.8" ry="1.8"/>
</g>
<!-- n1&#45;&#45;S -->
<g id="edge1" class="edge">
<title>n1--S</title>
<path fill="none" stroke="#000000" d="M62.1101,-88.2202C58.5154,-81.0307 44.8198,-53.6395 35.6343,-35.2687"/>
</g>
<!-- x -->
<g id="node3" class="node">
<title>x</title>
<ellipse fill="none" stroke="#000000" cx="99" cy="-18" rx="27" ry="18"/>
<text text-anchor="middle" x="99" y="-13.8" font-family="Times,serif" font-size="14.00" fill="#000000">x</text>
</g>
<!-- n1&#45;&#45;x -->
<g id="edge2" class="edge">
<title>n1--x</title>
<path fill="none" stroke="#000000" d="M63.8899,-88.2202C67.4846,-81.0307 81.1802,-53.6395 90.3657,-35.2687"/>
</g>
<!-- n2 -->
<g id="node4" class="node">
<title>n2</title>
<ellipse fill="#000000" stroke="#000000" cx="86" cy="-162" rx="1.8" ry="1.8"/>
</g>
<!-- n2&#45;&#45;n1 -->
<g id="edge3" class="edge">
<title>n2--n1</title>
<path fill="none" stroke="#000000" d="M85.4315,-160.2202C82.2494,-150.2589 66.6786,-101.5158 63.5487,-91.7176"/>
</g>
<!-- y -->
<g id="node5" class="node">
<title>y</title>
<ellipse fill="none" stroke="#000000" cx="110" cy="-90" rx="27" ry="18"/>
<text text-anchor="middle" x="110" y="-85.8" font-family="Times,serif" font-size="14.00" fill="#000000">y</text>
</g>
<!-- n2&#45;&#45;y -->
<g id="edge4" class="edge">
<title>n2--y</title>
<path fill="none" stroke="#000000" d="M86.5933,-160.2202C88.9753,-153.074 98.0104,-125.9688 104.1328,-107.6017"/>
</g>
<!-- n3 -->
<g id="node6" class="node">
<title>n3</title>
<ellipse fill="#000000" stroke="#000000" cx="109" cy="-217.8" rx="1.8" ry="1.8"/>
</g>
<!-- n3&#45;&#45;n2 -->
<g id="edge5" class="edge">
<title>n3--n2</title>
<path fill="none" stroke="#000000" d="M108.2347,-215.9434C104.7428,-207.4715 90.3383,-172.525 86.7917,-163.9208"/>
</g>
<!-- z -->
<g id="node7" class="node">
<title>z</title>
<ellipse fill="none" stroke="#000000" cx="133" cy="-162" rx="27" ry="18"/>
<text text-anchor="middle" x="133" y="-157.8" font-family="Times,serif" font-size="14.00" fill="#000000">z</text>
</g>
<!-- n3&#45;&#45;z -->
<g id="edge6" class="edge">
<title>n3--z</title>
<path fill="none" stroke="#000000" d="M109.7985,-215.9434C112.2223,-210.3081 119.6844,-192.9588 125.4988,-179.4403"/>
</g>
</g>
</svg>