<?xml version="1.0" encoding="UTF-8" standalone="no"?><!DOCTYPE svg PUBLIC "-//W3C//DTD SVG 1.1//EN" "http://www.w3.org/Graphics/SVG/1.1/DTD/svg11.dtd"><!-- Generated by graphviz version 2.40.1 (20161225.0304)
 --><!-- Title: G Pages: 1 --><svg xmlns="http://www.w3.org/2000/svg" xmlns:xlink="http://www.w3.org/1999/xlink" width="278pt" height="123pt" viewBox="0.00 0.00 278.00 123.20">
<g id="graph0" class="graph" transform="scale(1 1) rotate(0) translate(4 119.2)">
<title>G</title>
<polygon fill="#ffffff" stroke="transparent" points="-4,4 -4,-119.2 274,-119.2 274,4 -4,4"/>
<!-- n1 -->
<g id="node1" class="node">
<title>n1</title>
<ellipse fill="#000000" stroke="#000000" cx="99" cy="-73.8" rx="1.8" ry="1.8"/>
</g>
<!-- x -->
<g id="node2" class="node">
<title>x</title>
<ellipse fill="none" stroke="#000000" cx="27" cy="-18" rx="27" ry="18"/>
<text text-anchor="middle" x="27" y="-13.8" font-family="Times,serif" font-size="14.00" fill="#000000">x</text>
</g>
<!-- n1&#45;&#45;x -->
<g id="edge1" class="edge">
<title>n1--x</title>
<path fill="none" stroke="#000000" d="M97.4962,-72.6345C90.8321,-67.4699 63.4729,-46.2665 44.8642,-31.8448"/>
</g>
<!-- z1 -->
<g id="node6" class="node">
<title>z1</title>
<ellipse fill="none" stroke="#000000" cx="99" cy="-18" rx="27" ry="18"/>
<text text-anchor="middle" x="99" y="-13.8" font-family="Times,serif" font-size="14.00" fill="#000000">z</text>
</g>
<!-- n1&#45;&#45;z1 -->
<g id="edge2" class="edge">
<title>n1--z1</title>
<path fill="none" stroke="#000000" d="M99,-71.9434C99,-66.4216 99,-49.6526 99,-36.2614"/>
</g>
<!-- n2 -->
<g id="node3" class="node">
<title>n2</title>
<ellipse fill="#000000" stroke="#000000" cx="135" cy="-113.4" rx="1.8" ry="1.8"/>
</g>
<!-- n2&#45;&#45;n1 -->
<g id="edge3" class="edge">
<title>n2--n1</title>
<path fill="none" stroke="#000000" d="M133.4531,-111.6984C127.5315,-105.1846 106.3432,-81.8775 100.501,-75.4511"/>
</g>
<!-- n3 -->
<g id="node5" class="node">
<title>n3</title>
<ellipse fill="#000000" stroke="#000000" cx="171" cy="-73.8" rx="1.8" ry="1.8"/>
</g>
<!-- n2&#45;&#45;n3 -->
<g id="edge4" class="edge">
<title>n2--n3</title>
<path fill="none" stroke="#000000" d="M136.5469,-111.6984C142.4685,-105.1846 163.6568,-81.8775 169.499,-75.4511"/>
</g>
<!-- y -->
<g id="node4" class="node">
<title>y</title>
<ellipse fill="none" stroke="#000000" cx="171" cy="-18" rx="27" ry="18"/>
<text text-anchor="middle" x="171" y="-13.8" font-family="Times,serif" font-size="14.00" fill="#000000">y</text>
</g>
<!-- n3&#45;&#45;y -->
<g id="edge5" class="edge">
<title>n3--y</title>
<path fill="none" stroke="#000000" d="M171,-71.9434C171,-66.4216 171,-49.6526 171,-36.2614"/>
</g>
<!-- z2 -->
<g id="node7" class="node">
<title>z2</title>
<ellipse fill="none" stroke="#000000" cx="243" cy="-18" rx="27" ry="18"/>
<text text-anchor="middle" x="243" y="-13.8" font-family="Times,serif" font-size="14.00" fill="#000000">z</text>
</g>
<!-- n3&#45;&#45;z2 -->
<g id="edge6" class="edge">
<title>n3--z2</title>
<path fill="none" stroke="#000000" d="M172.5038,-72.6345C179.1679,-67.4699 206.5271,-46.2665 225.1358,-31.8448"/>
</g>
</g>
</svg>